
<svg xmlns="http://www.w3.org/2000/svg" viewBox="0 0 100.52 176.35"><defs><style>.cls-1{fill:#fff;}</style></defs><title>logo_tc_blanc</title><g id="Calque_2" data-name="Calque 2"><g id="Calque_1-2" data-name="Calque 1"><path class="cls-1" d="M99.69,1.13A3.31,3.31,0,0,0,94.82,1L57.43,38.4,1.29,97a4.7,4.7,0,0,0,.07,6.54l71.8,71.8a3.53,3.53,0,0,0,2.51,1,3.57,3.57,0,0,0,1.35-.27,3.54,3.54,0,0,0,2.19-3.27l.36-123.12L99.57,29a3.39,3.39,0,0,0,1-2.33V3.32A3.31,3.31,0,0,0,99.69,1.13ZM72.57,165.33,7.42,100.18l6.81-7.1,58.7,58.7ZM30.53,100l25.93-26.6v52.53Zm42.4,42.4-9.83-9.83v-66L72.93,56.5ZM93.88,25.27l-68,70-7-7,43.32-45.2L93.88,11.34Z"/></g></g></svg>